<svg xmlns="http://www.w3.org/2000/svg" viewBox="0 0 512 512">
  <defs>
    <linearGradient id="bg" x1="0%" y1="0%" x2="100%" y2="100%">
      <stop offset="0%" stop-color="#16302b" />
      <stop offset="100%" stop-color="#234a42" />
    </linearGradient>
    <linearGradient id="accent" x1="0%" y1="0%" x2="100%" y2="100%">
      <stop offset="0%" stop-color="#bb6c2f" />
      <stop offset="100%" stop-color="#e0a55f" />
    </linearGradient>
  </defs>
  <rect width="512" height="512" rx="128" fill="url(#bg)" />
  <path
    d="M126 116h144c13 0 26 5 35 15l57 57c9 9 14 21 14 34v174c0 22-18 40-40 40H126c-22 0-40-18-40-40V156c0-22 18-40 40-40Z"
    fill="#f7f5ef"
  />
  <path d="M304 116v72c0 12 10 22 22 22h72" fill="#dfe7e2" />
  <rect x="148" y="246" width="216" height="124" rx="18" fill="url(#accent)" />
  <rect x="176" y="276" width="160" height="18" rx="9" fill="#fff5eb" />
  <rect x="176" y="314" width="122" height="18" rx="9" fill="#fff5eb" />
  <path
    d="M110 378c47-17 86 31 132 18 34-9 48-46 81-54 28-7 55 8 79 23"
    fill="none"
    stroke="#16302b"
    stroke-linecap="round"
    stroke-width="18"
  />
</svg>
